<?xml version="1.0" encoding="utf-8"?>
<!-- Generator: Adobe Illustrator 25.0.0, SVG Export Plug-In . SVG Version: 6.00 Build 0)  -->
<svg version="1.1" id="Capa_1" xmlns="http://www.w3.org/2000/svg" xmlns:xlink="http://www.w3.org/1999/xlink" x="0px" y="0px"
	 viewBox="0 0 512 512" style="enable-background:new 0 0 512 512;" xml:space="preserve">
<style type="text/css">
	.st0{fill:#FF6347;}
</style>
<g>
	<path class="st0" d="M478.8,255.7c-16.1,0.1-29.7,12.2-31.8,28.2c-15.4,105.1-113.1,177.9-218.2,162.5S50.9,333.3,66.3,228.2
		S179.4,50.4,284.5,65.7c35.8,5.2,69.5,20.5,97,44l-24.1,24.1c-8.3,8.3-8.3,21.9,0,30.2c4,4,9.5,6.3,15.2,6.3h97.9
		c11.8,0,21.4-9.6,21.4-21.4V51c0-11.8-9.6-21.4-21.4-21.4c-5.7,0-11.1,2.3-15.1,6.3l-28.4,28.4c-105.8-93.8-267.6-84-361.4,21.8
		s-84,267.6,21.8,361.4s267.6,84,361.4-21.8c33-37.3,54.4-83.3,61.7-132.6c2.8-17.6-9.2-34.2-26.8-37
		C482,255.9,480.4,255.8,478.8,255.7z"/>
</g>
</svg>
